<?xml version="1.0" encoding="UTF-8"?> <!-- Generator: Adobe Illustrator 24.3.0, SVG Export Plug-In . SVG Version: 6.00 Build 0) --> <svg xmlns="http://www.w3.org/2000/svg" xmlns:xlink="http://www.w3.org/1999/xlink" version="1.1" id="Layer_1" x="0px" y="0px" viewBox="0 0 191.3 37.1" style="enable-background:new 0 0 191.3 37.1;" xml:space="preserve"> <style type="text/css"> .st0{fill:#2F3134;} </style> <g> <g> <path class="st0" d="M11.6,36.1c-0.1,0-0.1,0-0.2-0.1L0.1,20c0-0.1,0-0.1,0-0.2L8.3,2c0-0.1,0.1-0.1,0.2-0.1L28,0 c0.1,0,0.1,0,0.2,0.1l11.3,16c0,0.1,0,0.1,0,0.2l-8.2,17.8c0,0.1-0.1,0.1-0.2,0.1L11.6,36.1L11.6,36.1z M0.5,19.9l11.2,15.8 L31,33.9l8.1-17.6L27.9,0.4L8.6,2.2L0.5,19.9z M31.1,34.1L31.1,34.1L31.1,34.1z"></path> <path class="st0" d="M11.5,36.1L8.4,19.8V2l15.3,4.5l15.8,9.8L27.7,26.7L11.5,36.1z M8.5,2.2v17.6l3.1,16l15.9-9.2L39,16.3 L23.4,6.6L8.5,2.2z"></path> <g> <circle class="st0" cx="23.9" cy="6.6" r="0.6"></circle> <path class="st0" d="M23.9,7.8c-0.6,0-1.2-0.5-1.2-1.2c0-0.6,0.5-1.2,1.2-1.2c0.6,0,1.2,0.5,1.2,1.2C25,7.2,24.5,7.8,23.9,7.8z M23.9,6.6L23.9,6.6C23.8,6.6,23.9,6.6,23.9,6.6L23.9,6.6z"></path> </g> <g> <circle class="st0" cx="27.7" cy="26.6" r="0.6"></circle> <path class="st0" d="M27.7,27.8c-0.6,0-1.2-0.5-1.2-1.2s0.5-1.2,1.2-1.2c0.6,0,1.2,0.5,1.2,1.2S28.3,27.8,27.7,27.8z M27.7,26.6 L27.7,26.6C27.6,26.6,27.6,26.6,27.7,26.6L27.7,26.6z"></path> </g> <g> <circle class="st0" cx="11.7" cy="35.9" r="0.6"></circle> <path class="st0" d="M11.7,37.1c-0.6,0-1.2-0.5-1.2-1.2c0-0.6,0.5-1.2,1.2-1.2s1.2,0.5,1.2,1.2S12.4,37.1,11.7,37.1z M11.7,35.9 L11.7,35.9L11.7,35.9L11.7,35.9z"></path> </g> <g> <circle class="st0" cx="8.5" cy="19.9" r="0.6"></circle> <path class="st0" d="M8.5,21.1c-0.6,0-1.2-0.5-1.2-1.2c0-0.6,0.5-1.2,1.2-1.2s1.2,0.5,1.2,1.2C9.6,20.6,9.1,21.1,8.5,21.1z M8.5,19.9L8.5,19.9C8.4,19.9,8.4,20,8.5,19.9L8.5,19.9z"></path> </g> <g> <circle class="st0" cx="39.3" cy="16.3" r="0.6"></circle> <path class="st0" d="M39.3,17.5c-0.6,0-1.2-0.5-1.2-1.2c0-0.6,0.5-1.2,1.2-1.2c0.6,0,1.2,0.5,1.2,1.2 C40.5,16.9,39.9,17.5,39.3,17.5z M39.3,16.3L39.3,16.3L39.3,16.3L39.3,16.3z"></path> </g> <g> <circle class="st0" cx="8.5" cy="2" r="0.6"></circle> <path class="st0" d="M8.5,3.2C7.9,3.2,7.3,2.7,7.3,2c0-0.6,0.5-1.2,1.2-1.2S9.7,1.3,9.7,2C9.6,2.7,9.1,3.2,8.5,3.2z M8.5,2L8.5,2 C8.4,2.1,8.4,2.1,8.5,2L8.5,2z"></path> </g> <path class="st0" d="M31.1,34.3C31.1,34.3,31,34.3,31.1,34.3l-15-5.3l-16-9C0,20,0,19.9,0,19.9c0-0.1,0-0.1,0.1-0.2l12-11 l15.7-8.6c0.1,0,0.1,0,0.2,0s0.1,0.1,0.1,0.1l3.5,15.5l-0.4,18.4C31.2,34.2,31.2,34.2,31.1,34.3C31.2,34.3,31.1,34.3,31.1,34.3z M0.6,19.8l15.7,8.8l14.6,5.2l0.4-18.1L27.8,0.5L12.4,9L0.6,19.8z"></path> <path class="st0" d="M27.7,26.7L27.7,26.7L8.3,20l0.1-0.1L23.9,6.5L27.7,26.7z M8.5,19.9l19.1,6.6L23.8,6.7L8.5,19.9z"></path> <path class="st0" d="M16.1,29.2L12,8.6l19.8,7.1L16.1,29.2z M12.5,9.1l3.8,19.3l14.8-12.7L12.5,9.1z"></path> <rect x="10.2" y="1.5" transform="matrix(0.8718 -0.4898 0.4898 0.8718 -1.3105 5.7702)" class="st0" width="0.4" height="7.8"></rect> <polygon class="st0" points="11.9,36 11.6,35.8 16.1,28.7 16.4,28.9 "></polygon> <rect x="35.2" y="12.1" transform="matrix(7.286207e-02 -0.9973 0.9973 7.286207e-02 16.8425 50.12)" class="st0" width="0.4" height="7.8"></rect> </g> <g> <g> <path class="st0" d="M48.2,11.4h3.1v5.3h6.1v-5.3h3.1v14.2h-3.1v-6.1h-6.1v6.1h-3.1V11.4z"></path> <path class="st0" d="M66.8,19.6l-5.4-8.2h3.9l3,5.3l3.2-5.3h3.7l-5.3,8.2v6.1h-3.1L66.8,19.6z"></path> <path class="st0" d="M76.1,11.4h5.3c0.7,0,1.4,0.1,2.1,0.2c0.7,0.1,1.2,0.4,1.7,0.7s0.9,0.8,1.2,1.3c0.3,0.6,0.4,1.3,0.4,2.1 s-0.1,1.5-0.4,2.1s-0.6,1-1.1,1.3s-1,0.6-1.7,0.7C83,19.9,82.3,20,81.5,20h-2.3v5.5h-3.1V11.4z M79.2,17.4h2.1 c0.3,0,0.6,0,0.8-0.1c0.3-0.1,0.5-0.1,0.7-0.3c0.2-0.1,0.4-0.3,0.5-0.5s0.2-0.5,0.2-0.8c0-0.4-0.1-0.7-0.3-0.9 c-0.2-0.2-0.4-0.4-0.6-0.5c-0.3-0.1-0.6-0.2-0.9-0.2s-0.6,0-0.9,0h-1.6L79.2,17.4z"></path> <path class="st0" d="M88.7,11.4h9.7v2.9h-6.5V17h6.2v2.9h-6.2v2.9h6.9v2.9h-10L88.7,11.4z"></path> <path class="st0" d="M101,11.4h5.5c0.7,0,1.4,0.1,2.1,0.2c0.7,0.1,1.2,0.4,1.7,0.7s0.9,0.8,1.2,1.3c0.3,0.6,0.4,1.2,0.4,2.1 c0,1-0.3,1.9-0.8,2.6c-0.5,0.7-1.3,1.2-2.3,1.3l3.6,6h-3.8l-3-5.7h-1.5v5.7H101L101,11.4z M104.2,17.3h1.9c0.3,0,0.6,0,0.9,0 c0.3,0,0.6-0.1,0.9-0.2c0.3-0.1,0.5-0.3,0.6-0.5c0.2-0.2,0.2-0.5,0.2-0.9s-0.1-0.7-0.2-0.9c-0.1-0.2-0.3-0.4-0.6-0.5 c-0.2-0.1-0.5-0.2-0.8-0.2s-0.6-0.1-0.9-0.1h-2.1L104.2,17.3z"></path> <path class="st0" d="M114,11.4h3.1v11.3h5.8v2.9h-9L114,11.4z"></path> <path class="st0" d="M124.6,11.4h9.7v2.9h-6.5V17h6.2v2.9h-6.2v2.9h6.9v2.9h-10L124.6,11.4z"></path> <path class="st0" d="M136.9,11.4h4.7c1.1,0,2.2,0.1,3.2,0.4c1,0.3,1.9,0.7,2.7,1.2c0.8,0.6,1.4,1.3,1.8,2.2 c0.5,0.9,0.7,2,0.7,3.3c0,1.2-0.2,2.2-0.7,3c-0.4,0.9-1,1.6-1.8,2.2c-0.7,0.6-1.6,1-2.6,1.4c-1,0.3-2,0.5-3,0.5h-5.1L136.9,11.4z M140.1,22.8h1.6c0.7,0,1.4-0.1,2-0.2c0.6-0.1,1.2-0.4,1.6-0.7c0.5-0.3,0.8-0.8,1.1-1.3c0.3-0.6,0.4-1.2,0.4-2 c0-0.7-0.1-1.3-0.4-1.8c-0.3-0.5-0.6-0.9-1.1-1.3c-0.4-0.3-1-0.6-1.6-0.8s-1.2-0.3-1.9-0.2h-1.9L140.1,22.8z"></path> <path class="st0" d="M164.9,24.5c-0.9,0.5-1.9,0.8-2.9,1s-2,0.3-3.1,0.3s-2.1-0.2-3.1-0.5c-0.9-0.3-1.8-0.8-2.4-1.5 c-0.7-0.6-1.2-1.4-1.6-2.4c-0.4-0.9-0.6-2-0.6-3.1s0.2-2.2,0.6-3.1c0.4-0.9,0.9-1.7,1.6-2.4c0.7-0.7,1.5-1.2,2.4-1.5 s2-0.5,3.1-0.5s2.2,0.1,3.1,0.4c1,0.3,1.8,0.7,2.5,1.4l-2.2,2.4c-0.4-0.4-0.9-0.8-1.4-1s-1.2-0.3-2-0.3c-0.7,0-1.3,0.1-1.8,0.3 s-1,0.5-1.4,1c-0.4,0.4-0.7,0.9-0.9,1.5s-0.3,1.2-0.3,1.8c0,0.7,0.1,1.3,0.3,1.8c0.2,0.6,0.5,1,0.9,1.4s0.9,0.7,1.4,1 c0.5,0.2,1.2,0.3,1.8,0.3c0.7,0,1.3-0.1,1.8-0.2c0.5-0.2,0.9-0.3,1.2-0.5v-2.3h-2.6v-2.9h5.6L164.9,24.5z"></path> <path class="st0" d="M167.6,11.4h9.7v2.9h-6.5V17h6.2v2.9h-6.2v2.9h6.9v2.9h-10L167.6,11.4z"></path> <path class="st0" d="M179.9,11.4h5.5c0.7,0,1.4,0.1,2.1,0.2c0.7,0.1,1.2,0.4,1.7,0.7s0.9,0.8,1.2,1.3c0.3,0.6,0.4,1.2,0.4,2.1 c0,1-0.3,1.9-0.8,2.6c-0.5,0.7-1.3,1.1-2.3,1.3l3.6,6h-3.8l-3-5.7H183v5.7h-3.1L179.9,11.4z M183.1,17.3h1.9c0.3,0,0.6,0,0.9,0 c0.3,0,0.6-0.1,0.9-0.2c0.3-0.1,0.5-0.3,0.6-0.5c0.2-0.2,0.3-0.5,0.3-0.9s-0.1-0.7-0.2-0.9c-0.1-0.2-0.3-0.4-0.6-0.5 c-0.2-0.1-0.5-0.2-0.8-0.2s-0.6-0.1-0.9-0.1h-2.1L183.1,17.3z"></path> </g> </g> </g> </svg> 